<?xml version="1.0" standalone="no"?>
<!DOCTYPE svg PUBLIC "-//W3C//DTD SVG 20010904//EN"
 "http://www.w3.org/TR/2001/REC-SVG-20010904/DTD/svg10.dtd">
<svg version="1.0" xmlns="http://www.w3.org/2000/svg"
 width="16.000000pt" height="16.000000pt" viewBox="0 0 16.000000 16.000000"
 preserveAspectRatio="xMidYMid meet">
<metadata>
Created by potrace 1.11, written by Peter Selinger 2001-2013
</metadata>
<g transform="translate(0.000000,16.000000) scale(0.003125,-0.003125)"
fill="#000000" stroke="none">
<path d="M759 5116 c-2 -2 -17 -6 -34 -9 -138 -23 -291 -100 -395 -199 -108
-103 -190 -251 -226 -408 -5 -19 -9 -800 -11 -1735 -3 -1860 -5 -1766 57
-1920 100 -251 334 -435 600 -472 19 -3 645 -6 1390 -8 745 -1 1360 -3 1365
-4 6 0 24 -13 40 -29 17 -15 59 -52 95 -82 36 -30 78 -67 95 -82 16 -14 68
-58 114 -97 l84 -71 61 53 c34 29 108 93 166 142 142 122 161 138 174 150 6 6
81 69 166 140 294 246 407 379 475 560 90 237 55 478 -94 664 l-36 44 -1 1341
c0 1031 -3 1356 -13 1405 -59 304 -297 542 -603 605 -68 14 -267 16 -1771 16
-931 0 -1696 -2 -1698 -4z"/>
</g>
</svg>
